#N canvas 210 63 791 633 10;
#X msg 635 335 \; pd dsp 1;
#X msg 329 431 0 \, 360 5000;
#X obj 122 572 earplug~ 270 -25;
#X floatatom 327 267 5 0 0 0 - - -;
#N canvas 0 22 385 256 (subpatch) 0;
#X floatatom 260 197 0 0 0 0 cpu-meter - -;
#X obj 260 129 cputime;
#X obj 260 33 loadbang;
#X obj 260 80 metro 1000;
#X msg 260 61 1;
#X obj 260 108 t b b;
#X obj 260 170 * 0.1;
#X obj 260 150 int;
#X connect 1 0 7 0;
#X connect 2 0 4 0;
#X connect 3 0 5 0;
#X connect 4 0 3 0;
#X connect 5 0 1 0;
#X connect 5 1 1 1;
#X connect 6 0 0 0;
#X connect 7 0 6 0;
#X coords 0 1 100 -1 120 20 1 200 195;
#X restore 492 19 graph;
#X msg 714 335 \; pd dsp 0;
#X text 24 8 earplug~ - convolution binaural filter;
#X obj 492 138 soundfiler;
#N canvas 0 22 450 300 (subpatch) 0;
#X array table 62079 float 0;
#X coords 0 1 62078 -1 100 60 1;
#X restore 634 244 graph;
#X obj 122 335 tabplay~ table;
#X obj 327 309 line 0 1;
#X obj 327 286 pack 0 50;
#X floatatom 328 357 5 0 0 0 - - -;
#X obj 328 399 line 0 1;
#X obj 328 376 pack 0 50;
#X msg 331 488 0 \, 360 5000;
#X obj 331 513 line 0 1;
#X obj 329 456 line 0 50;
#X text 637 371 audio on;
#X obj 120 206 tabplay~ table;
#X obj 120 236 dac~;
#X text 23 73 You must use headphones to hear effective filter effects.
This filter could be DSP intensive due to convolution., f 72;
#X msg 167 182 stop;
#X text 20 237 original --->;
#X obj 122 599 dac~ 1 2;
#X text 24 570 filtered --->;
#X msg 172 286 stop;
#X msg 122 286 bang;
#X msg 120 182 bang;
#X text 405 487 <---a better circle;
#X text 404 431 <--- circle with noise;
#X text 327 538 avoid zipper noise: uase small line grain;
#X text 363 266 <--- azimuth: 0 - 360 (degrees);
#X text 365 356 <--- elevation: -40 - 90 (degrees);
#X text 118 163 start;
#X text 120 267 start;
#X obj 492 93 openpanel;
#X obj 492 73 bng 15 250 50 0 empty empty empty 17 7 0 10 -204786 -1
-1;
#X text 513 72 <- open a soundfile;
#X obj 218 287 noise~;
#X obj 239 315 tgl 15 0 empty empty empty 17 7 0 10 -204786 -1 -1 1
1;
#X text 226 265 for testing:;
#X obj 218 335 *~ 0;
#X msg 492 114 read -resize \$1 table;
#X obj 330 246 hsl 128 15 0 360 0 0 empty empty empty -2 -8 0 10 -262130
-1 -1 7100 1;
#X obj 331 337 hsl 128 15 -40 90 0 1 empty empty empty -2 -8 0 10 -262130
-1 -1 11100 0;
#N canvas 306 231 494 344 META 0;
#X text 12 185 HELP_PATCH_AUTHORS Jonathan Wilkes revised the patch
to conform to the PDDP template for Pd version 0.42.;
#X text 12 5 KEYWORDS signal filter;
#X text 12 165 AUTHOR Pei Xiang;
#X text 12 45 DESCRIPTION convolution binaural filter;
#X text 12 25 LICENSE GPL v2;
#X text 12 65 INLET_0 signal;
#X text 12 85 INLET_1 float;
#X text 12 105 INLET_2 float;
#X text 12 125 OUTLET_0 signal;
#X text 12 145 OUTLET_1 signal;
#X restore 724 598 pd META;
#X text 23 39 This filter utilizes HRTF measurements (compact set)
of KEMAR Dummy-Head Microphone (https://sound.media.mit.edu/resources/KEMAR.html)
, f 72;
#X text 23 105 You can override the built-in impulses used in the calculation
by putting them in a file called "earplug_data.txt" in the same folder
as the earplug~ external or the patch using the earplug object. See
the "earplug_data_src.txt" as an example of the default data set.,
f 72;
#X connect 1 0 17 0;
#X connect 2 0 24 0;
#X connect 2 1 24 1;
#X connect 3 0 11 0;
#X connect 9 0 2 0;
#X connect 9 1 27 0;
#X connect 10 0 2 1;
#X connect 11 0 10 0;
#X connect 12 0 14 0;
#X connect 13 0 2 2;
#X connect 14 0 13 0;
#X connect 15 0 16 0;
#X connect 16 0 2 1;
#X connect 17 0 2 1;
#X connect 19 0 20 0;
#X connect 19 0 20 1;
#X connect 22 0 19 0;
#X connect 26 0 9 0;
#X connect 27 0 9 0;
#X connect 28 0 19 0;
#X connect 36 0 43 0;
#X connect 37 0 36 0;
#X connect 39 0 42 0;
#X connect 40 0 42 1;
#X connect 42 0 2 0;
#X connect 43 0 7 0;
#X connect 44 0 3 0;
#X connect 45 0 12 0;
